# xmcd
#
# Track frame offsets:
#	150
#	21334
#	44098
#	57237
#	74893
#	102279
#	114826
#	129518
#	159959
#	186385
#	203655
#	216496
#	236940
#	261891
#	275746
#	290138
#	310512
#
# Disc length: 4389 seconds
#
# Revision: 0
# Processed by: cddbd v1.5.1PL0 Copyright (c) Steve Scherf et al.
# Submitted via: audiograbber 1.82.01
#
DISCID=13112311
DTITLE=Ry Cooder - Travellin' Man
DYEAR=1974
DGENRE=
TTITLE0=Too Tight
TTITLE1=FDR In Trinidad
TTITLE2=Rowdy Man
TTITLE3=Crazy 'Bout An Automobile
TTITLE4=(I Can Tell By The Way You Smell) You're Doing Something Wrong
TTITLE5=Just Like A Submarine
TTITLE6=Billy The Kid
TTITLE7=One Meatball
TTITLE8=How Can A Poor Man Stand Such Times And Live
TTITLE9=Preacher
TTITLE10=Vigilante Man
TTITLE11=Ditty Wah Ditty
TTITLE12=Goin' To Brownsville
TTITLE13=Travellin' Man
TTITLE14=Clean Up At Home
TTITLE15=President Kennedy's Gone
TTITLE16=Ditty Wah Ditty
EXTD=
EXTT0=
EXTT1=
EXTT2=
EXTT3=
EXTT4=
EXTT5=
EXTT6=
EXTT7=
EXTT8=
EXTT9=
EXTT10=
EXTT11=
EXTT12=
EXTT13=
EXTT14=
EXTT15=
EXTT16=
PLAYORDER=
